<svg width="33" height="32" viewBox="0 0 33 32" fill="none" xmlns="http://www.w3.org/2000/svg">
<path fill-rule="evenodd" clip-rule="evenodd" d="M16.4462 0C7.85169 0 0.884445 6.96725 0.884445 15.5618C0.884445 24.1563 7.85169 31.1236 16.4462 31.1236C25.0408 31.1236 32.008 24.1563 32.008 15.5618C32.008 6.96725 25.0408 0 16.4462 0ZM13.0245 7.31234C13.9098 7.27205 14.1927 7.2622 16.4467 7.2622H16.4441C18.6989 7.2622 18.9807 7.27205 19.866 7.31234C20.7496 7.3528 21.3531 7.49269 21.8822 7.69793C22.4286 7.90975 22.8902 8.19332 23.3519 8.65499C23.8136 9.11632 24.0972 9.57937 24.3098 10.1252C24.5139 10.653 24.6539 11.2561 24.6954 12.1397C24.7352 13.025 24.7456 13.3078 24.7456 15.5619C24.7456 17.816 24.7352 18.0982 24.6954 18.9835C24.6539 19.8667 24.5139 20.47 24.3098 20.9979C24.0972 21.5436 23.8136 22.0066 23.3519 22.4679C22.8908 22.9296 22.4284 23.2139 21.8827 23.4259C21.3546 23.6311 20.7508 23.771 19.8672 23.8115C18.9819 23.8517 18.6999 23.8616 16.4457 23.8616C14.1918 23.8616 13.9091 23.8517 13.0238 23.8115C12.1404 23.771 11.5371 23.6311 11.009 23.4259C10.4635 23.2139 10.0005 22.9296 9.5393 22.4679C9.0778 22.0066 8.79423 21.5436 8.58207 20.9977C8.377 20.47 8.23711 19.8669 8.19648 18.9833C8.15636 18.098 8.14634 17.816 8.14634 15.5619C8.14634 13.3078 8.15671 13.0248 8.19631 12.1395C8.23608 11.2563 8.37613 10.653 8.5819 10.1251C8.79458 9.57937 9.07815 9.11632 9.53982 8.65499C10.0011 8.19349 10.4642 7.90992 11.0101 7.69793C11.5378 7.49269 12.1409 7.3528 13.0245 7.31234Z" fill="white"/>
<path fill-rule="evenodd" clip-rule="evenodd" d="M15.7023 8.75769C15.8469 8.75746 16.0024 8.75753 16.1703 8.75761L16.4469 8.75769C18.6629 8.75769 18.9256 8.76564 19.8007 8.80541C20.6099 8.84242 21.0491 8.97763 21.3416 9.09123C21.729 9.24167 22.0051 9.42149 22.2954 9.71198C22.5859 10.0025 22.7657 10.2791 22.9165 10.6664C23.0301 10.9587 23.1655 11.3979 23.2023 12.2071C23.2421 13.082 23.2507 13.3448 23.2507 15.5598C23.2507 17.7748 23.2421 18.0376 23.2023 18.9125C23.1653 19.7218 23.0301 20.161 22.9165 20.4532C22.7661 20.8405 22.5859 21.1163 22.2954 21.4066C22.0049 21.6971 21.7291 21.8769 21.3416 22.0274C21.0494 22.1415 20.6099 22.2764 19.8007 22.3134C18.9257 22.3531 18.6629 22.3618 16.4469 22.3618C14.2307 22.3618 13.968 22.3531 13.0931 22.3134C12.2839 22.276 11.8447 22.1408 11.552 22.0272C11.1646 21.8768 10.888 21.6969 10.5975 21.4064C10.307 21.1159 10.1272 20.84 9.9764 20.4525C9.86279 20.1603 9.72741 19.7211 9.69058 18.9119C9.65081 18.0369 9.64285 17.7741 9.64285 15.5577C9.64285 13.3414 9.65081 13.0799 9.69058 12.205C9.72758 11.3958 9.86279 10.9566 9.9764 10.664C10.1268 10.2767 10.307 10.0001 10.5975 9.70956C10.888 9.41907 11.1646 9.23925 11.552 9.08847C11.8445 8.97435 12.2839 8.83948 13.0931 8.8023C13.8588 8.76772 14.1555 8.75734 15.7023 8.75562V8.75769ZM20.8769 10.1358C20.327 10.1358 19.8809 10.5814 19.8809 11.1315C19.8809 11.6813 20.327 12.1274 20.8769 12.1274C21.4267 12.1274 21.8728 11.6813 21.8728 11.1315C21.8728 10.5816 21.4267 10.1355 20.8769 10.1355V10.1358ZM12.1848 15.562C12.1848 13.2082 14.0932 11.2998 16.4469 11.2997C18.8007 11.2997 20.7086 13.2081 20.7086 15.562C20.7086 17.9158 18.8009 19.8233 16.4471 19.8233C14.0933 19.8233 12.1848 17.9158 12.1848 15.562Z" fill="white"/>
<path fill-rule="evenodd" clip-rule="evenodd" d="M16.4471 12.7954C17.9749 12.7954 19.2137 14.034 19.2137 15.562C19.2137 17.0898 17.9749 18.3285 16.4471 18.3285C14.9191 18.3285 13.6805 17.0898 13.6805 15.562C13.6805 14.034 14.9191 12.7954 16.4471 12.7954V12.7954Z" fill="white"/>
</svg>
