<svg width="32" height="32" viewBox="0 0 32 32" fill="none" xmlns="http://www.w3.org/2000/svg">
<path fill-rule="evenodd" clip-rule="evenodd" d="M16.4382 0C7.84368 0 0.876434 6.96725 0.876434 15.5618C0.876434 24.1563 7.84368 31.1236 16.4382 31.1236C25.0327 31.1236 32 24.1563 32 15.5618C32 6.96725 25.0327 0 16.4382 0ZM8.34662 12.8887H11.8733V23.4848H8.34662V12.8887ZM12.1057 9.61121C12.0828 8.57227 11.3398 7.78095 10.1334 7.78095C8.92695 7.78095 8.13822 8.57227 8.13822 9.61121C8.13822 10.6286 8.90364 11.4427 10.0876 11.4427H10.1101C11.3398 11.4427 12.1057 10.6286 12.1057 9.61121ZM20.5318 12.6404C22.8525 12.6404 24.5923 14.1552 24.5923 17.4098L24.5922 23.4853H21.0657V17.8164C21.0657 16.3925 20.5553 15.4209 19.2787 15.4209C18.3044 15.4209 17.7241 16.0759 17.4692 16.7085C17.3759 16.9353 17.353 17.2512 17.353 17.5679V23.4856H13.826C13.826 23.4856 13.8725 13.8838 13.826 12.8895H17.353V14.3904C17.8211 13.6689 18.6594 12.6404 20.5318 12.6404Z" fill="white"/>
</svg>
