<svg width="32" height="32" viewBox="0 0 32 32" fill="none" xmlns="http://www.w3.org/2000/svg">
<path fill-rule="evenodd" clip-rule="evenodd" d="M15.7385 0C7.14394 0 0.176697 6.96725 0.176697 15.5618C0.176697 24.1563 7.14394 31.1236 15.7385 31.1236C24.333 31.1236 31.3003 24.1563 31.3003 15.5618C31.3003 6.96725 24.333 0 15.7385 0ZM15.305 13.1869L15.2723 12.6484C15.1743 11.2528 16.0343 9.97804 17.3949 9.48353C17.8956 9.3077 18.7447 9.28572 19.2998 9.43957C19.5175 9.5055 19.9311 9.72529 20.225 9.9231L20.7584 10.2857L21.3462 10.0989C21.6728 10 22.1082 9.83518 22.3041 9.72529C22.4891 9.62639 22.6524 9.57144 22.6524 9.60441C22.6524 9.79122 22.2497 10.4286 21.9122 10.7803C21.4551 11.2748 21.5857 11.3187 22.5109 10.9891C23.0661 10.8022 23.0769 10.8022 22.9681 11.011C22.9028 11.1209 22.5653 11.5055 22.2061 11.8572C21.5966 12.4616 21.5639 12.5275 21.5639 13.033C21.5639 13.8133 21.1938 15.4397 20.8237 16.3298C20.138 18.0002 18.6685 19.7255 17.199 20.5936C15.1308 21.8134 12.3769 22.1211 10.0583 21.4068C9.28547 21.1651 7.95748 20.5497 7.95748 20.4398C7.95748 20.4068 8.36023 20.3629 8.85007 20.3519C9.87327 20.3299 10.8965 20.0442 11.7673 19.5387L12.3551 19.187L11.6802 18.9562C10.7223 18.6266 9.86238 17.8683 9.64468 17.154C9.57937 16.9232 9.60114 16.9123 10.2107 16.9123L10.842 16.9013L10.3087 16.6485C9.67734 16.3298 9.10042 15.7913 8.81741 15.2419C8.61059 14.8463 8.34935 13.8463 8.42554 13.7693C8.44731 13.7364 8.6759 13.8023 8.93715 13.8902C9.68822 14.1649 9.78619 14.099 9.35078 13.6375C8.5344 12.8023 8.28404 11.5605 8.6759 10.3846L8.86095 9.85716L9.57937 10.5715C11.0489 12.0111 12.7796 12.8682 14.7607 13.121L15.305 13.1869Z" fill="white"/>
</svg>
