<svg width="33" height="23" viewBox="0 0 33 23" fill="none" xmlns="http://www.w3.org/2000/svg">
<g clip-path="url(#clip0_35_61)">
<path d="M32.3104 3.59153C31.9309 2.17777 30.8128 1.06449 29.3929 0.686663C26.8194 1.90735e-06 16.5 1.90735e-06 16.5 1.90735e-06C16.5 1.90735e-06 6.18062 1.90735e-06 3.60711 0.686663C2.1873 1.06449 1.06904 2.17777 0.689574 3.59153C0 6.15385 0 11.5 0 11.5C0 11.5 0 16.8461 0.689574 19.4086C1.06904 20.8222 2.1873 21.9355 3.60711 22.3135C6.18062 23 16.5 23 16.5 23C16.5 23 26.8194 23 29.3929 22.3135C30.8128 21.9355 31.9309 20.8222 32.3104 19.4086C33 16.8461 33 11.5 33 11.5C33 11.5 33 6.15385 32.3104 3.59153Z" fill="#252323"/>
<path d="M13.125 16.3539L21.75 11.5002L13.125 6.64612V16.3539Z" fill="white"/>
</g>
<defs>
<clipPath id="clip0_35_61">
<rect width="33" height="23" fill="white"/>
</clipPath>
</defs>
</svg>
