<svg width="33" height="23" viewBox="0 0 33 23" fill="none" xmlns="http://www.w3.org/2000/svg">
<g clip-path="url(#clip0_35_62)">
<path d="M32.3104 19.4085C31.9309 20.8222 30.8128 21.9355 29.3929 22.3133C26.8194 23 16.5 23 16.5 23C16.5 23 6.18062 23 3.60711 22.3133C2.1873 21.9355 1.06904 20.8222 0.689574 19.4085C0 16.8461 0 11.5 0 11.5C0 11.5 0 6.15393 0.689574 3.59136C1.06904 2.17777 2.1873 1.0645 3.60711 0.686507C6.18062 0 16.5 0 16.5 0C16.5 0 26.8194 0 29.3929 0.686507C30.8128 1.0645 31.9309 2.17777 32.3104 3.59136C33 6.15393 33 11.5 33 11.5C33 11.5 33 16.8461 32.3104 19.4085Z" fill="#ED1D24"/>
<path d="M13.125 6.64624L21.75 11.4999L13.125 16.354V6.64624Z" fill="white"/>
</g>
<defs>
<clipPath id="clip0_35_62">
<rect width="33" height="23" fill="white" transform="matrix(1 0 0 -1 0 23)"/>
</clipPath>
</defs>
</svg>
