<svg width="32" height="31" viewBox="0 0 32 31" fill="none" xmlns="http://www.w3.org/2000/svg">
<path fill-rule="evenodd" clip-rule="evenodd" d="M15.6752 0C24.263 0 31.2352 6.97222 31.2352 15.56C31.2352 24.1478 24.263 31.12 15.6752 31.12C7.08745 31.12 0.115234 24.1478 0.115234 15.56C0.115234 6.97222 7.08745 0 15.6752 0ZM24.9939 10.8785C24.7702 10.0416 24.1112 9.38268 23.2744 9.15901C21.7574 8.7525 15.6752 8.7525 15.6752 8.7525C15.6752 8.7525 9.59304 8.7525 8.07606 9.15901C7.23941 9.38268 6.58023 10.0416 6.35656 10.8785C5.95023 12.3953 5.95023 15.5601 5.95023 15.5601C5.95023 15.5601 5.95023 18.7248 6.35656 20.2415C6.58023 21.0784 7.23941 21.7376 8.07606 21.9612C9.59304 22.3675 15.6752 22.3675 15.6752 22.3675C15.6752 22.3675 21.7574 22.3675 23.2744 21.9612C24.1112 21.7376 24.7702 21.0784 24.9939 20.2415C25.4002 18.7248 25.4002 15.5601 25.4002 15.5601C25.4002 15.5601 25.4002 12.3953 24.9939 10.8785ZM13.7302 18.4777V12.6426L18.7833 15.5601L13.7302 18.4777Z" fill="white"/>
</svg>
